<?xml version="1.0" encoding="UTF-8" standalone="no"?>
<svg
   xmlns:dc="http://purl.org/dc/elements/1.1/"
   xmlns:cc="http://creativecommons.org/ns#"
   xmlns:rdf="http://www.w3.org/1999/02/22-rdf-syntax-ns#"
   xmlns:svg="http://www.w3.org/2000/svg"
   xmlns="http://www.w3.org/2000/svg"
   viewBox="0 0 432 432"
   id="svg2"
   height="432"
   width="432"
   version="1.1">
  <metadata
     id="metadata32">
    <rdf:RDF>
      <cc:Work
         rdf:about="">
        <dc:format>image/svg+xml</dc:format>
        <dc:type
           rdf:resource="http://purl.org/dc/dcmitype/StillImage" />
        <dc:title></dc:title>
      </cc:Work>
    </rdf:RDF>
  </metadata>
  <defs
     id="defs30" />
  <path
     id="path4"
     style="fill:#0076aa;fill-rule:evenodd"
     d="m 276.0606,289.3079 c -3.6635,0 -6.5411,2.8904 -6.5411,6.5677 5e-4,3.4154 2.8776,6.3053 6.2787,6.3053 3.6634,0 6.5411,-2.8899 6.5411,-6.3053 5e-4,-3.6778 -2.8782,-6.5672 -6.2792,-6.5672 l 5e-4,-5e-4 z m -0.2619,1.051 c 0,0 -5e-4,5e-4 0.2614,5e-4 2.8782,-5e-4 4.9716,2.3639 4.9716,5.5162 0,2.8894 -2.0939,5.2543 -4.9716,5.2543 -3.1396,-5e-4 -5.233,-2.3644 -5.233,-5.2543 5e-4,-3.1528 2.0929,-5.2543 4.9711,-5.5162 l 5e-4,-5e-4 z m -2.3549,1.8389 0,7.3557 1.0462,0 0,-3.1524 1.3087,0 2.0934,3.1524 1.3081,0 -2.0939,-3.4154 c 1.0467,0 1.8315,-0.788 1.8315,-1.8384 5e-4,-1.5769 -1.0457,-2.1014 -2.6163,-2.1014 l -2.8777,-5e-4 z m 1.0462,3.1518 0,-2.3639 1.5706,0 c 1.0457,0 1.569,0.5265 1.569,1.314 0,0.525 -0.5233,1.0504 -1.3081,1.0504 l -1.8315,-5e-4 z" />
  <path
     id="path6"
     style="fill:#0076aa;fill-rule:evenodd"
     d="m 320.9148,317.9968 c 0,0 1.57,0.263 2.0929,0.5255 0.7847,0.2629 1.569,0.7879 2.0924,1.5764 l 34.2741,37.3019 0,-31.5227 c -0.262,-3.1533 -0.5229,-4.4663 -1.3076,-5.2542 -0.7848,-0.7885 -1.8315,-1.5765 -2.8782,-1.5765 -0.7838,-5e-4 -1.3076,0 -2.0934,0.263 l 0.2619,-1.5759 14.6513,0 0,1.5754 c -0.5234,-0.263 -1.0467,-0.2625 -1.5701,-0.2625 -3.4005,-5e-4 -4.1863,0.5255 -4.1863,6.8307 l 5e-4,39.9293 c -0.5233,-0.263 -0.5233,0.2625 -1.0467,0.526 0,-5e-4 -0.2619,0.2625 -0.5233,0.2625 -0.2614,-5e-4 -0.5234,0 -1.0467,-0.2625 l -35.8432,-40.7188 0,32.3116 c 0,3.6784 0,4.4664 1.0472,5.5173 0.5234,0.788 1.8305,1.5764 2.8777,1.5764 0.5229,0 1.3081,0 2.0924,-0.2635 l 0,1.051 c -0.5233,0.262 -14.1279,0.2625 -14.9127,5e-4 l 0,-1.0515 c 0.5234,0.2635 1.0467,0.2635 1.5696,0.2635 2.3553,-0.2635 4.7096,-1.8394 4.4482,-6.8307 l 0,-40.1922 z" />
  <path
     id="path8"
     style="fill:#0076aa;fill-rule:evenodd"
     d="m 70.0091,317.9968 c 0,0 1.5701,0.263 2.0934,0.5255 0.5234,0.2629 1.3082,0.7879 1.831,1.5764 l 34.2736,37.3019 0,-31.5227 c 0,-3.1533 -0.2609,-4.4663 -1.3076,-5.2542 -0.5234,-0.7885 -1.832,-1.5765 -2.8772,-1.5765 -0.5238,-5e-4 -1.3091,0 -1.8319,0.263 l 0.2614,-1.5759 14.6507,0 0,1.5754 c -0.5233,-0.263 -1.0467,-0.2625 -1.569,-0.2625 -3.4015,-5e-4 -4.4482,0.5255 -4.4482,6.8307 l 0.2619,39.9293 c -0.5233,-0.263 -0.5233,0.2625 -1.0467,0.526 0,-5e-4 -0.2619,0.2625 -0.5233,0.2625 -0.261,-5e-4 -0.7848,0 -1.0467,-0.2625 l -35.8432,-40.7188 0,32.3116 c 0,3.6784 0,4.4664 0.7848,5.5173 0.7853,0.788 2.0929,1.5764 3.1401,1.5764 0.5233,0 1.3081,0 1.8314,-0.2635 l 0,1.051 c -0.5233,0.262 -14.1289,0.2625 -14.6517,5e-4 l 0,-1.0515 c 0.2619,0.2635 0.7847,0.2635 1.3081,0.2635 2.6162,-0.2635 4.7091,-1.8394 4.7091,-6.8307 l 0,-40.1922 z" />
  <path
     id="path10"
     style="fill:#0076aa;fill-rule:evenodd"
     d="m 130.9696,325.8779 c 0,-4.9918 -2.8782,-6.3052 -3.4016,-6.3052 -0.5228,-5e-4 -1.8309,0 -2.8776,0 l -0.262,-1.8384 18.5762,0 0,1.8379 c -1.0467,-0.2625 -1.3086,5e-4 -2.6158,5e-4 -3.9248,-5e-4 -4.1863,3.1524 -4.1863,6.3052 l -0.2619,23.116 c 0,3.1529 0,15.5009 15.9594,15.5009 5.4944,0 10.9888,-2.8904 13.0817,-8.1447 1.3082,-3.4143 1.5701,-6.8307 1.3082,-9.7196 l 0,-20.4901 c 0,-2.8899 0.2619,-4.9918 -2.3549,-6.0417 -0.2614,-0.2635 -0.7847,-0.526 -1.5695,-0.526 -0.5234,-5e-4 -2.0934,0 -2.0934,0 l 0,-1.8384 14.9127,0 0.2619,1.8379 c 0,0 -1.5695,5e-4 -2.0929,5e-4 -0.5238,-5e-4 -1.3076,0 -1.57,0.263 -2.6158,1.3129 -2.6158,2.6274 -2.6158,8.6691 l 0,16.0248 c 0,7.6172 -0.2619,12.8715 -4.971,17.3373 -4.4483,4.2023 -10.7269,4.7288 -13.0818,4.7288 -12.5578,-5e-4 -20.1456,-5.7788 -20.1456,-16.8128 l 0,-23.905 z" />
  <path
     id="path12"
     style="fill:#0076aa;fill-rule:evenodd"
     d="m 216.2615,339.8003 c 5.7558,4.7293 8.372,8.9327 8.372,14.1854 0,3.9403 -2.3543,12.084 -15.1746,12.084 -5.4949,-5e-4 -8.1106,-0.787 -12.0345,-1.5749 l -0.2619,-9.4591 2.0934,0.2645 c 0.2614,0.2619 0.5223,5.2532 2.6157,6.5667 1.3081,1.0504 2.8782,2.3644 7.5873,2.3644 5.7569,0 10.9888,-3.4144 10.9888,-8.9311 5e-4,-5.7808 -5.2324,-10.2451 -8.634,-12.8725 l -3.9243,-3.1534 c -5.7564,-4.7282 -8.6335,-7.0916 -8.6335,-12.0839 0,-4.4658 3.6624,-9.9816 10.7259,-9.9816 3.1396,0 5.2335,-0.262 11.2512,1.051 0,0 0,6.0417 0,8.1431 l -1.5705,0 c 0.2624,-0.7885 0,-0.2625 0,-1.3139 0,-0.5255 -3.401,-6.0418 -9.1564,-6.0418 -4.1868,-5e-4 -7.3264,2.6274 -7.3264,6.0418 0,2.1014 0.5229,4.7293 9.1574,11.822 l 3.9244,2.8893 z" />
  <path
     id="path14"
     style="fill:#0076aa;fill-rule:evenodd"
     d="m 240.5934,324.039 c 0,-1.8394 -0.2624,-4.9918 -3.9248,-4.9918 -0.7848,-5e-4 -1.3077,0.263 -2.0929,0.263 l 5e-4,-1.3134 17.5294,0 0,1.3129 c -0.5238,0 -1.3086,-0.2625 -1.832,-0.2625 -1.3071,-5e-4 -4.4477,1.0515 -4.4477,5.5168 l 0,14.9738 13.6051,-12.6094 c 1.832,-1.8399 4.1868,-4.2033 4.1868,-6.0423 5e-4,-0.5249 -0.2629,-1.5759 -2.3553,-1.5759 -0.2614,-5e-4 -0.7843,-0.263 -1.0467,0 l -0.262,-1.3134 14.3899,0 0,1.3129 c -0.2614,0 -1.0462,-0.2625 -1.5695,5e-4 -1.3077,-5e-4 -2.6163,0.2625 -4.4478,1.8384 l -19.3599,17.6013 17.266,19.9646 c 5.234,5.5168 7.5878,6.3052 9.6812,6.3052 1.3077,0 3.1391,0 3.9244,0 0,0.263 -0.2619,1.3135 0,1.3135 0,-5e-4 -5.4944,0 -7.8487,0 -3.663,-5e-4 -6.8026,-2.1019 -9.9422,-5.5163 l -16.2213,-19.1771 -0.2619,0 0,17.8627 c 0,3.1523 1.8315,5.2537 4.7096,5.2537 0.7848,0 1.5701,0 1.3082,0 l 0,1.051 -15.9589,0 0,-1.051 c -0.2615,0 0.5223,-0.2614 1.3081,-0.2614 3.1391,0 3.6619,-2.6279 3.6619,-5.2548 l 5e-4,-35.201 z" />
  <path
     id="path16"
     style="fill:#0076aa;fill-rule:evenodd"
     d="m 303.9082,319.3097 -2.0924,-0.263 c -4.1868,0 -4.4487,4.2038 -4.4487,6.3058 l 0,33.8875 c 0,1.8394 0,5.7797 4.7101,5.7797 0.2614,0 0.7848,0 1.3071,-0.2635 l 0,1.313 -17.0056,0 0,-1.313 c 0.5239,0.2635 1.0467,0.2635 1.8315,0.2635 3.6629,0 3.6629,-2.8898 3.6629,-6.0417 l 0,-33.626 c 0,-3.4159 0,-6.3048 -4.1862,-6.3048 -0.5224,-5e-4 -1.0462,0 -1.5691,0.263 l 0,-1.3134 17.7904,0 0,1.3129 z" />
  <path
     id="path18"
     style="fill:#0076aa;fill-rule:evenodd"
     d="m 109.5199,230.4814 c 13.7248,26.0878 36.4978,46.5321 64.0656,57.0157 l 0,-69.7501 c -6e-4,-53.0314 -63.9099,-39.2312 -63.9099,1.8008 0,0 -0.0613,4.2608 -0.1557,10.9336 z" />
  <path
     id="path20"
     style="fill:#0076aa;fill-rule:evenodd"
     d="m 100.9721,207.9142 c 0.2996,-55.8485 88.6592,-64.2484 87.4601,13.1998 l 0,70.9381 c 2.0577,0.4862 4.1355,0.9185 6.232,1.296 l 0,-76.6224 c -2.3695,-104.7572 -94.7631,-73.6708 -97.7349,-24.1583 0.9391,5.9182 2.2966,11.6943 4.0411,17.2959 0.001,-0.6917 0.002,-1.3422 0.002,-1.9491 z" />
  <path
     id="path22"
     style="fill:#0076aa;fill-rule:evenodd"
     d="m 97.4126,150.5636 c 30.0197,-39.2111 102.7338,-46.1168 104.3921,39.8299 l 0,104.0168 c 1.9289,0.227 3.8715,0.4082 5.8271,0.5417 l 4.5851,0 -6e-4,-126.4709 c 0,-16.7156 -7.1254,-53.558 -54.157,-58.9087 0,0 23.1403,-37.9123 57.9416,-39.5626 l 0.3781,8e-4 c 45.1508,-0.4498 61.3908,40.1616 61.3902,40.1624 -52.6544,-3.4999 -57.6065,41.5925 -57.6065,58.3081 l 0,126.4709 3.8885,0 c 2.1252,-0.1452 4.2353,-0.3464 6.329,-0.6021 l 0,-103.2364 C 232.0294,105.6257 303.978,112.0014 334.2878,150.6583 324.3042,95.7421 278.159,53.6879 221.8487,50.8808 l -12.0143,0 c -56.278,2.8054 -102.4025,44.8129 -112.4218,99.6828 z" />
  <path
     id="path24"
     style="fill:#0076aa;fill-rule:evenodd"
     d="m 335.0259,190.7671 c -5.8722,-48.0146 -95.1763,-76.2894 -97.5053,26.6786 l 0,75.8109 c 2.0968,-0.3867 4.1746,-0.8286 6.232,-1.3241 l 0,-70.0985 c -1.1962,-77.2608 86.7339,-69.0886 87.4565,-13.604 1.6761,-5.6591 2.9591,-11.4911 3.8168,-17.4629 z" />
  <path
     id="path26"
     style="fill:#0076aa;fill-rule:evenodd"
     d="m 322.5093,220.2678 c 0,-41.032 -63.9094,-54.8322 -63.91,-1.8008 l 0,68.8379 c 27.6645,-10.6642 50.4539,-31.3752 64.0423,-57.7425 -0.081,-5.7235 -0.1323,-9.2946 -0.1323,-9.2946 z" />
</svg>
